<svg width="36" height="36" viewBox="0 0 36 36" fill="none" xmlns="http://www.w3.org/2000/svg">
<path fill-rule="evenodd" clip-rule="evenodd" d="M19.4724 7.63817C18.6195 6.92738 17.3805 6.92738 16.5276 7.63817C16.0032 8.07516 15.7 8.72249 15.7 9.40508V10.5H14.3V9.40508C14.3 8.30699 14.7878 7.26564 15.6313 6.56266C17.0035 5.41922 18.9966 5.41922 20.3687 6.56266C21.2123 7.26564 21.7 8.30699 21.7 9.40508V10.5H20.3V9.40508C20.3 8.72249 19.9968 8.07516 19.4724 7.63817Z" fill="white"/>
<path fill-rule="evenodd" clip-rule="evenodd" d="M10.4251 14.0438C10.6474 12.7475 11.7712 11.8 13.0863 11.8H22.9137C24.2288 11.8 25.3527 12.7475 25.5749 14.0438L27.8302 27.2H8.1698L10.4251 14.0438ZM13.0863 13.2C12.4531 13.2 11.912 13.6562 11.805 14.2803L9.83022 25.8H26.1698L24.195 14.2803C24.088 13.6562 23.5469 13.2 22.9137 13.2H13.0863Z" fill="white"/>
</svg>
