<svg width="108" height="44" viewBox="0 0 108 44" fill="none" xmlns="http://www.w3.org/2000/svg">
<path d="M21.9127 26.096L17.7691 19.4778H17.6711V26.0972H16.5648V18.2967C16.0853 18.1566 16 17.8341 16 17.6295C16 17.129 16.5052 17 17.07 17H17.6967L22.0726 24.0041H22.1344V17H23.2406V26.0949L21.9127 26.096Z" fill="white"/>
<path d="M30.0286 20.8235L30.0265 21.8755H26.8911V25.0451H30.8876V26.0972H25.5653V18.2967C25.0857 18.1566 25.0005 17.8341 25.0005 17.6295C25.0005 17.129 25.5056 17 26.0705 17H30.5956V18.0521H26.8954V20.8235H30.0286Z" fill="white"/>
<path d="M37.285 20.8235L37.2828 21.8755H34.1474V25.0451H38.144V26.0972H32.8217V18.2967C32.3421 18.1566 32.2568 17.8341 32.2568 17.6295C32.2568 17.129 32.762 17 33.3268 17H37.8519V18.0521H34.1517V20.8235H37.285Z" fill="white"/>
<path d="M41.1503 25.0451H44.6907V26.0972H39.8224V18.2967C39.3428 18.1566 39.2576 17.8341 39.2576 17.6295C39.2576 17.129 39.7627 17 40.3276 17H41.1503V25.0451Z" fill="white"/>
<path d="M45.5039 26.0969L48.5775 17.002H49.9182L52.9918 26.0969H51.6404L50.8773 23.8904H47.5459L46.8339 26.0969H45.5039ZM49.2404 18.7191H49.1658L47.8634 22.8628H50.5683L49.2404 18.7191Z" fill="white"/>
<path d="M2.85336 37.416C3.7507 38.0188 4.65871 38.4036 5.57951 38.4036C6.90741 38.4036 7.59588 37.9165 7.59588 36.9534C7.59588 35.9903 6.7241 35.67 5.3962 35.1829C3.68676 34.5534 2.50806 34.1175 2.50806 32.3736C2.50806 30.9501 3.62708 29.9492 5.53261 29.9492C6.70066 29.9492 7.48717 30.2829 7.99233 30.4875L7.83247 31.6285C7.02038 31.1659 6.42996 30.9879 5.57098 30.9879C4.41572 30.9879 3.89991 31.5662 3.89991 32.2958C3.89991 33.2077 4.56493 33.488 5.80544 33.9506C7.95609 34.7469 8.98986 35.2985 8.98986 36.8889C8.98986 38.4792 7.64916 39.4423 5.75642 39.4423C4.33046 39.4423 3.42033 39.0197 2.6466 38.6215L2.85336 37.416Z" fill="white"/>
<path d="M13.1414 30.1536C14.1005 30.1536 16.4729 30.2838 16.4729 33.0018C16.4729 34.6055 15.4156 35.9133 13.1542 35.9133H11.8753V39.2497H10.5474V31.4493C10.055 31.2825 9.98252 30.9866 9.98252 30.782C9.98252 30.2815 10.5367 30.1525 11.1868 30.1525L13.1414 30.1536ZM11.8625 31.129V34.9258H13.1414C14.3222 34.9258 15.0831 34.3741 15.0831 33.0018C15.0831 31.9497 14.6035 31.129 13.1414 31.129H11.8625Z" fill="white"/>
<path d="M23.8077 32.6292C23.8077 34.0661 22.5544 34.9258 21.5334 35.1059L24.1892 39.2497H22.6162L20.1821 35.2216H19.1611V39.2497H17.8332V31.4493C17.3408 31.2825 17.2683 30.9866 17.2683 30.782C17.2683 30.2815 17.8225 30.1525 18.4726 30.1525H20.6979C22.3455 30.1525 23.8077 30.6274 23.8077 32.6292ZM19.1355 31.129V34.2474H20.4762C21.3373 34.2474 22.418 33.9004 22.418 32.6303C22.418 31.2446 21.2755 31.129 20.5743 31.129H19.1355Z" fill="white"/>
<path d="M27.8051 39.2515H26.4772V31.451C25.9848 31.2842 25.9124 30.9884 25.9124 30.7838C25.9124 30.2833 26.4665 30.1543 27.1166 30.1543H27.8051V39.2515Z" fill="white"/>
<path d="M36.2771 39.2515L32.1335 32.6321H32.0355V39.2515H30.9292V31.451C30.4496 31.3109 30.3644 30.9884 30.3644 30.7838C30.3644 30.2833 30.8695 30.1543 31.4344 30.1543H32.061L36.4369 37.1584H36.4988V30.1543H37.605V39.2492L36.2771 39.2515Z" fill="white"/>
<path d="M43.6515 38.4168C44.0565 38.4168 44.6235 38.379 45.1265 38.161V35.9167H43.7133V34.8647H46.4182V38.8283C45.3865 39.2264 44.5254 39.4444 43.4192 39.4444C40.7016 39.4444 39.5953 37.4826 39.5953 34.7112C39.5953 31.5038 41.3048 29.9513 43.5045 29.9513C44.2057 29.9513 45.0903 30.0803 45.913 30.5163L45.7659 31.6462C45.2864 31.3259 44.5126 30.9923 43.6515 30.9923C42.0785 30.9923 40.9829 32.3135 40.9829 34.7379C40.9829 37.4314 42.0039 38.4168 43.6515 38.4168Z" fill="white"/>
<path d="M47.9789 37.416C48.8762 38.0188 49.7864 38.4036 50.7072 38.4036C52.0351 38.4036 52.7236 37.9165 52.7236 36.9534C52.7236 35.9903 51.8518 35.67 50.5239 35.1829C48.8144 34.5534 47.6357 34.1175 47.6357 32.3736C47.6357 30.9501 48.7547 29.9492 50.6603 29.9492C51.8283 29.9492 52.6148 30.2829 53.12 30.4875L52.9601 31.6285C52.148 31.1659 51.5576 30.9879 50.6987 30.9879C49.5434 30.9879 49.0276 31.5662 49.0276 32.2958C49.0276 33.2077 49.6926 33.488 50.9331 33.9506C53.0838 34.7469 54.1175 35.2985 54.1175 36.8889C54.1175 38.4792 52.7768 39.4423 50.8841 39.4423C49.4581 39.4423 48.548 39.0197 47.7743 38.6215L47.9832 37.416H47.9789Z" fill="white"/>
<path d="M68.3431 40.6096C68.2237 40.8187 68.0788 41.0478 67.9104 41.2858C68.4156 41.3636 68.9292 41.4103 69.0657 41.4059C70.5556 41.3747 71.8131 40.6407 72.4249 40.0068C71.7172 40.0291 71.0138 40.0402 70.3296 40.038C69.7094 40.2915 69.0145 40.4784 68.3431 40.6074V40.6096Z" fill="#A41D11"/>
<path d="M59.6411 19.3431C59.6411 19.3431 59.6241 19.3497 59.6155 19.3542C59.5942 19.3653 59.575 19.3297 59.5964 19.3208C59.6305 19.3052 59.6646 19.2897 59.6987 19.2741C59.7541 19.2207 59.8223 19.1807 59.8905 19.1495C60.012 19.0962 60.142 19.065 60.272 19.0361C60.3744 18.9961 60.4788 18.9605 60.5811 18.9249C60.1484 18.876 59.7157 18.807 59.2894 18.7158C59.3811 18.9694 59.4834 19.2185 59.5921 19.4654C59.5964 19.4387 59.6028 19.4142 59.6134 19.3875C59.6198 19.372 59.6326 19.3564 59.6411 19.3431Z" fill="#41B7FF"/>
<path d="M61.3512 9.51423C62.0781 9.67438 62.7708 9.96798 63.4443 10.2905C63.7875 10.4551 64.1285 10.6264 64.4738 10.7865C64.8319 10.9533 65.19 11.1135 65.5502 11.2714C68.0909 12.2033 70.2054 13.1153 71.0622 13.9271C71.1198 13.9205 71.1752 13.9116 71.2327 13.9049C72.0533 13.8293 73.0274 13.8893 73.7138 14.4098C73.8523 14.5188 73.9738 14.65 74.0676 14.8013L74.0399 14.8213C73.4963 14.0183 72.2175 13.8849 71.173 14.0361C71.2349 14.1029 71.3009 14.1718 71.3691 14.2452C71.7208 14.3453 72.0661 14.4921 72.3219 14.6789C72.4157 14.7523 72.5009 14.8324 72.5542 14.9481L72.6011 15.0548C72.4775 15.0926 72.339 15.1238 72.2175 15.1349C72.2025 15.1349 72.1855 15.1371 72.1706 15.1393C74.3404 17.635 77.6506 21.8788 79.6542 24.4812C80.0783 24.2966 80.5025 24.0942 80.916 23.8806C79.6925 22.3459 78.0364 20.1039 77.6484 18.7649C77.2712 17.4637 76.8129 16.1936 76.5507 14.8635C76.393 14.0673 76.0797 11.9898 74.4044 11.1624C72.8761 8.62009 73.1788 11.1624 73.2235 11.5427C73.2171 11.5405 73.2107 11.5383 73.2022 11.5361L72.4114 9.99245C72.7162 10.7687 73.0168 11.5472 73.328 12.3212C73.3386 12.3479 73.2981 12.3613 73.2875 12.3346C73.2512 12.2456 73.2171 12.1566 73.1809 12.0677L67.33 0.0990092C67.3151 0.0812152 67.3023 0.0656455 67.2874 0.0478516C67.1147 1.01762 67.1787 2.03188 67.4664 2.97051C67.6305 3.19961 67.7904 3.43093 67.9481 3.6667C68.2508 4.11822 68.5449 4.57864 68.8306 5.04128C69.1332 5.53284 69.4274 6.02884 69.713 6.5293C70.005 7.04088 70.2906 7.5569 70.5656 8.0796C70.8341 8.58673 71.0942 9.0983 71.3457 9.61655C71.5759 10.0925 71.7976 10.5708 72.0086 11.0556C72.194 11.4871 72.3709 11.9231 72.5308 12.3657C72.5393 12.3924 72.5009 12.4058 72.4903 12.3791C72.4796 12.3479 72.4668 12.3168 72.4562 12.2879L65.1729 0.766282C65.1218 0.768507 65.0728 0.781852 65.0259 0.804095C64.5335 1.03764 64.4866 1.66043 64.7893 2.1253C65.0664 2.55013 65.6909 3.49765 66.0554 4.07373C66.3858 4.42072 66.6948 4.78994 66.9932 5.16361C67.6028 5.9243 68.1741 6.72058 68.7197 7.53243C69.2718 8.35318 69.8004 9.19172 70.3205 10.0347C70.8341 10.8688 71.3414 11.7051 71.8594 12.537C71.8743 12.5615 71.8381 12.5837 71.8253 12.5615C71.804 12.5259 71.7805 12.4903 71.7592 12.4547L63.033 2.58571C63.033 2.58571 63.0266 2.58571 63.0223 2.58794C63.0095 2.59239 62.9989 2.58127 62.9967 2.57014C62.9434 2.59016 62.8923 2.61685 62.8411 2.64799C61.8798 3.24631 62.4745 3.37977 61.9331 5.01459C61.9246 5.03906 61.9075 5.0524 61.8841 5.05907C62.0056 5.11246 62.1271 5.17029 62.2464 5.22812C62.5171 5.35935 62.7836 5.5017 63.0457 5.65072C63.3783 5.83978 63.7065 6.03774 64.0284 6.24682C64.4163 6.49816 64.7957 6.76285 65.1687 7.03643C65.612 7.36117 66.0447 7.70148 66.4689 8.05291C66.9634 8.46217 67.4451 8.887 67.9183 9.32517C68.4554 9.82341 68.9798 10.3394 69.4913 10.8688C70.0732 11.4693 70.638 12.0877 71.188 12.7216C71.205 12.7416 71.1773 12.775 71.1603 12.755C71.1347 12.7238 71.107 12.6949 71.0814 12.666L61.1168 4.80773C61.0997 4.80329 61.0827 4.79661 61.0635 4.79216C61.0549 4.78994 61.0507 4.78327 61.0486 4.77437C60.9505 4.7766 60.8802 4.8322 60.8738 4.9879C60.8589 5.25926 60.9143 7.47683 59.9658 7.32113C60.1896 7.37896 60.4112 7.43457 60.6351 7.4924C60.991 7.58359 61.3491 7.67478 61.705 7.76598C61.963 7.83271 62.2209 7.89721 62.4788 7.96394C62.6237 8.00175 62.7601 8.05513 62.8987 8.11074C63.1971 8.2353 63.4891 8.3732 63.779 8.51555C64.184 8.71351 64.5847 8.92481 64.979 9.14056C65.4522 9.39857 65.9211 9.66771 66.3836 9.94574C66.8909 10.2505 67.3918 10.5685 67.8842 10.8977C68.3893 11.238 68.886 11.5917 69.3698 11.9631C69.8409 12.3257 70.3013 12.706 70.7382 13.1108C70.7595 13.1286 70.7297 13.162 70.7105 13.1442C70.6892 13.1242 70.6679 13.1042 70.6444 13.0864L59.9786 7.37006C59.9508 7.36339 59.921 7.35449 59.8933 7.34782C59.8826 7.3456 59.8805 7.3367 59.8784 7.33003C59.6588 7.46348 59.8379 8.58895 59.5054 9.19172C59.7079 9.26067 59.9104 9.3274 60.1128 9.39635C60.5263 9.38968 60.9399 9.42749 61.347 9.51646L61.3512 9.51423ZM73.5923 12.9996C73.701 12.9863 73.8097 12.9952 73.9184 13.0196C74.2679 13.0997 74.5024 13.2977 74.7177 13.5868C74.852 13.7625 74.9607 13.9627 75.031 14.174C75.1013 14.3853 75.1333 14.6078 75.1226 14.828H75.1013C75.0608 14.4031 74.8711 14.0094 74.5919 13.7025C74.4555 13.5535 74.2871 13.4423 74.1251 13.3266C73.9567 13.2087 73.782 13.1153 73.5923 13.0219L73.5965 12.9996H73.5923Z" fill="#41B7FF"/>
<path d="M72.3045 14.9197C72.2747 14.8886 72.2427 14.8597 72.2086 14.8308C72.134 14.7707 72.0509 14.7196 71.9635 14.6728C71.8633 14.6195 71.744 14.5639 71.6118 14.5127C71.7354 14.6506 71.8655 14.7952 71.9997 14.9486C72.0999 14.942 72.2044 14.9353 72.3045 14.9197Z" fill="#41B7FF"/>
<path d="M64.8555 25.6188C64.8811 25.5787 64.9088 25.5409 64.9344 25.5009C64.7169 25.4364 64.4995 25.3585 64.3077 25.2295C64.1308 25.1094 63.9837 24.9493 63.8985 24.7446C63.8196 24.5578 63.794 24.3398 63.8708 24.1463C63.8963 24.0818 63.9283 24.0262 63.9667 23.975C63.9603 23.9684 63.956 23.9572 63.9667 23.9483C63.988 23.9306 64.0114 23.915 64.0327 23.8972C64.0519 23.8772 64.0732 23.8572 64.0967 23.8394C64.0882 23.8238 64.0796 23.8104 64.0732 23.7949C63.8814 23.8505 63.6853 23.895 63.485 23.8905C63.291 23.8861 63.1056 23.8282 62.9521 23.6992C62.8221 23.5902 62.7198 23.4345 62.7006 23.2611C62.658 22.8941 62.9862 22.6627 63.2889 22.5782C63.0864 22.4336 62.886 22.2868 62.6835 22.1423C62.5173 22.0222 62.3404 21.9109 62.1869 21.773C62.0718 21.6685 61.9546 21.5261 61.9567 21.3571C61.961 21.1947 62.0761 21.0813 62.2061 21.0123C62.3169 20.9545 62.4363 20.9145 62.5578 20.8833C62.5833 20.8744 62.6089 20.8655 62.6345 20.8566C62.2743 20.8144 61.9183 20.7454 61.5709 20.6453C61.2192 20.5453 60.876 20.4185 60.5435 20.2628C60.3773 20.1849 60.2131 20.1004 60.0512 20.0092C59.9488 19.9514 59.8401 19.8935 59.7506 19.8135C60.8441 22.1334 62.6004 24.1841 64.6381 25.8656C64.6956 25.77 64.7681 25.6877 64.8534 25.6188H64.8555Z" fill="#41B7FF"/>
<path d="M63.0215 2.59047C63.0215 2.59047 63.0279 2.59047 63.0322 2.58825L71.7584 12.4572C71.7797 12.4928 71.8032 12.5284 71.8245 12.564C71.8394 12.5884 71.8735 12.564 71.8586 12.5395C71.3407 11.7076 70.8334 10.8691 70.3197 10.0372C69.7996 9.19425 69.271 8.35571 68.719 7.53497C68.1733 6.72312 67.6021 5.92684 66.9925 5.16615C66.6919 4.79247 66.385 4.42102 66.0546 4.07627C65.7541 3.76265 65.4386 3.46682 65.0912 3.20659C64.5583 2.80845 63.889 2.42365 63.2112 2.5104C63.143 2.5193 63.0748 2.53264 63.0087 2.55043C62.996 2.55488 62.9938 2.566 62.996 2.5749C62.9981 2.58602 63.0087 2.59492 63.0215 2.5927V2.59047Z" fill="#4A6588"/>
<path d="M61.0591 4.79065C61.0761 4.7951 61.0932 4.80177 61.1124 4.80622L71.077 12.6645C71.1026 12.6934 71.1303 12.7245 71.1558 12.7534C71.175 12.7735 71.2027 12.7423 71.1836 12.7201C70.6336 12.0884 70.0688 11.4701 69.4869 10.8673C68.9753 10.3379 68.4531 9.82411 67.9139 9.32366C67.4428 8.88548 66.959 8.46065 66.4645 8.05139C66.0403 7.69996 65.6076 7.35965 65.1643 7.03491C64.7913 6.76133 64.4119 6.49664 64.0239 6.2453C63.7021 6.03622 63.376 5.83827 63.0413 5.64921C62.7792 5.50018 62.5127 5.36005 62.242 5.2266C62.1227 5.16877 62.0012 5.11094 61.8797 5.05756C61.8008 5.02197 61.722 4.98638 61.641 4.95302C61.5109 4.89964 61.3788 4.84625 61.2466 4.79955C61.1912 4.77953 61.1315 4.75061 61.074 4.74394C61.0719 4.74394 61.0697 4.74394 61.0676 4.74394C61.0505 4.73949 61.042 4.75506 61.0441 4.76841C61.0441 4.77508 61.0484 4.78398 61.0591 4.7862V4.79065Z" fill="#4A6588"/>
<path d="M59.8957 7.34772C59.9234 7.3544 59.9533 7.36329 59.981 7.36997L70.6468 13.0863C70.6681 13.1063 70.6895 13.1241 70.7129 13.1441C70.7321 13.1619 70.7619 13.1308 70.7406 13.1107C70.3015 12.7059 69.8433 12.3256 69.3722 11.963C68.8884 11.5916 68.3917 11.2379 67.8866 10.8976C67.3942 10.5662 66.8933 10.2504 66.386 9.94564C65.9235 9.66761 65.4546 9.39848 64.9814 9.14046C64.5849 8.92471 64.1842 8.71563 63.7814 8.51545C63.4915 8.3731 63.1973 8.23297 62.9011 8.11064C62.7625 8.05281 62.6261 7.99943 62.4812 7.96384C62.2233 7.89711 61.9654 7.83261 61.7074 7.76588C61.3515 7.67469 60.9934 7.58349 60.6375 7.4923C60.4136 7.43447 60.192 7.37886 59.9682 7.32103C59.9596 7.32103 59.9511 7.31658 59.9426 7.31436C59.9319 7.31214 59.9191 7.30769 59.9085 7.30546C59.8914 7.30101 59.8829 7.31658 59.885 7.32993C59.885 7.33883 59.8893 7.3455 59.9 7.34772H59.8957Z" fill="#4A6588"/>
<path d="M73.1754 12.0663C73.2116 12.1552 73.2457 12.2442 73.282 12.3332C73.2926 12.3599 73.3331 12.3465 73.3225 12.3198C73.0113 11.5458 72.7107 10.7673 72.4059 9.99106C72.4059 9.98661 72.4038 9.98438 72.4017 9.97994C72.0606 9.11026 71.7175 8.2428 71.3594 7.3798C70.9907 6.49455 70.607 5.61375 70.1977 4.74851C69.7992 3.90775 69.375 3.08033 68.9039 2.28183C68.4776 1.55895 68.0151 0.858312 67.4844 0.215506C67.4268 0.14433 67.3671 0.0753784 67.3053 0.00642681C67.2862 -0.0135914 67.2584 0.017548 67.2776 0.0397905C67.2798 0.044239 67.284 0.0464632 67.2862 0.0509117C67.3011 0.0664814 67.3139 0.0842753 67.3288 0.102069L73.1754 12.0685V12.0663Z" fill="#4A6588"/>
<path d="M72.4857 12.3849C72.4942 12.4116 72.5347 12.3983 72.5262 12.3716C72.3685 11.9289 72.1916 11.493 72.004 11.0615C71.7951 10.5766 71.5713 10.0962 71.3411 9.6224C71.0896 9.10415 70.8295 8.59257 70.561 8.08545C70.2839 7.56497 70.0004 7.04672 69.7084 6.53515C69.4228 6.03469 69.1286 5.53646 68.826 5.04713C68.5403 4.58226 68.2483 4.12407 67.9435 3.67255C67.7858 3.439 67.6259 3.20545 67.4618 2.97636C67.3467 2.81399 67.2295 2.65162 67.1101 2.49147C66.8714 2.17118 66.622 1.85979 66.3577 1.56174C66.1616 1.34154 65.9549 1.12579 65.7225 0.947847C65.5861 0.843308 65.4199 0.727647 65.2451 0.71875C65.2131 0.71875 65.1833 0.71875 65.1534 0.727647C65.1279 0.73432 65.1406 0.77658 65.1662 0.769908C65.1662 0.769908 65.1705 0.769908 65.1726 0.769908L72.4516 12.2937C72.4623 12.3249 72.475 12.356 72.4857 12.3849Z" fill="#4A6588"/>
<path d="M63.4425 10.2902C62.769 9.96987 62.0762 9.67405 61.3494 9.5139C60.9423 9.42493 60.5288 9.38489 60.1153 9.39379C61.9526 10.0121 63.8454 10.646 65.5484 11.2711C65.1882 11.1131 64.828 10.953 64.472 10.7862C64.1267 10.626 63.7878 10.4548 63.4425 10.2902Z" fill="#4A6588"/>
<path d="M74.5883 13.7003C74.8676 14.0072 75.0573 14.4009 75.0978 14.8257H75.1191C75.1319 14.6055 75.0978 14.3831 75.0274 14.1718C74.9571 13.9583 74.8505 13.7603 74.7141 13.5846C74.4988 13.2977 74.2644 13.0975 73.9148 13.0174C73.8082 12.993 73.6974 12.9841 73.5887 12.9974L73.5844 13.0197C73.772 13.1108 73.9489 13.2043 74.1173 13.3244C74.2793 13.44 74.4477 13.5512 74.5841 13.7003H74.5883Z" fill="#41B7FF"/>
<path d="M88.7878 28.9769C88.7836 28.9035 88.7772 28.7967 88.7751 28.6699L88.7154 28.71C88.6834 28.5031 88.6791 28.294 88.7026 28.085C87.9459 28.3741 87.2233 28.7545 86.7267 29.2549C87.0294 29.1793 87.3321 29.1037 87.6347 29.028C87.1104 29.5752 86.586 30.1201 86.0617 30.6673C86.5221 30.5628 86.9825 30.456 87.445 30.3515C85.8208 31.6994 84.1945 33.0495 82.5703 34.3974C83.4037 34.0215 84.2372 33.6433 85.0727 33.2675C84.1455 33.9681 83.2183 34.6687 82.2911 35.3694C82.76 35.2737 83.229 35.1759 83.6979 35.0802C82.5235 35.7097 81.3511 36.3391 80.1767 36.9664C80.4346 36.9486 80.6947 36.9308 80.9526 36.913C78.8147 37.7782 76.5255 38.2409 74.232 38.2698C74.8757 38.5278 75.5216 38.788 76.1653 39.046C75.3042 38.9571 74.4452 38.8659 73.5841 38.7769C73.697 38.9437 73.8079 39.1128 73.9208 39.2796C73.5564 39.3085 72.5759 39.3997 71.3631 39.4998C71.0604 39.7066 70.7087 39.8868 70.3272 40.0425C71.0114 40.0425 71.7148 40.0336 72.4224 40.0114C74.7628 39.9357 77.1564 39.7089 79.1046 39.204C86.7224 37.2333 87.8372 30.7985 90.0049 28.3296C89.4784 28.6655 88.9925 29.0659 88.5704 29.5196C88.6259 29.3305 88.6983 29.1504 88.7836 28.9813L88.7878 28.9769Z" fill="#D23F00"/>
<path d="M68.3425 40.6104C68.1656 40.6437 67.9887 40.6749 67.816 40.7015C66.9464 41.4689 65.9723 42.1184 65.0089 42.7567C63.86 43.5174 62.4916 44.0068 61.1467 43.9045C60.9804 43.9156 60.8078 43.9178 60.6309 43.92C60.925 43.9423 61.5005 43.9601 62.7069 43.9979C65.3606 44.0802 67.004 42.561 67.9098 41.2887C68.0803 41.0508 68.2232 40.8217 68.3425 40.6126V40.6104Z" fill="#000404"/>
<path d="M64.8531 39.418C64.802 39.4269 64.7487 39.4335 64.6975 39.4424C64.6911 39.4469 64.6847 39.4536 64.6783 39.458C64.7359 39.4447 64.7956 39.4291 64.8531 39.418Z" fill="#EA5B0C"/>
<path d="M62.3209 43.3557L62.2826 43.4068C62.3785 43.3846 62.4744 43.3624 62.5703 43.3379C62.4872 43.3446 62.4041 43.349 62.3188 43.3557H62.3209Z" fill="#EA5B0C"/>
<path d="M88.3065 26.7557C88.4792 26.3821 88.7435 26.0596 89.0632 25.8127C88.7307 25.6903 88.4472 25.5591 88.234 25.419C87.9996 25.2655 87.7523 25.1454 87.5029 25.0497C85.9704 24.4692 83.6045 24.1044 83.6215 25.8038C83.6301 26.6401 83.2507 27.3363 82.6133 27.9346C81.9803 28.1325 81.3217 28.2438 80.6588 28.2571C80.3647 28.2638 80.0684 28.2482 79.7742 28.2171C79.7572 28.2282 79.7401 28.2415 79.7231 28.2527C80.0641 28.2994 80.4051 28.3439 80.7462 28.3906C79.6463 28.7709 78.5444 29.1513 77.4445 29.5294C77.4232 29.536 77.4275 29.5672 77.4488 29.5694C77.9177 29.5961 78.3845 29.6228 78.8534 29.6495C77.6939 29.7763 76.5536 30.081 75.4793 30.5592C75.1489 30.706 74.8271 30.8684 74.5116 31.0463C74.4924 31.0574 74.5052 31.0863 74.5266 31.0819C74.81 31.0218 75.0935 30.9596 75.377 30.8995C74.2537 31.2042 73.1304 31.509 72.0072 31.8137C71.9837 31.8203 71.9944 31.8559 72.0178 31.8515L72.2203 31.8092C71.2739 32.1095 70.383 32.5922 69.6007 33.2305C69.5858 33.2416 69.6007 33.2661 69.6156 33.2639C68.9847 33.6131 68.4071 34.0646 67.9105 34.6073C67.8977 34.6207 67.9105 34.6451 67.9297 34.6407C68.1385 34.5762 68.3474 34.5117 68.5542 34.4494C67.9339 34.7497 67.3755 35.1901 66.93 35.7372C66.9172 35.755 66.9343 35.7795 66.9534 35.7684C66.9577 35.7684 66.9598 35.7639 66.9641 35.7617C66.346 36.211 65.8088 36.7782 65.3825 37.4299C65.3719 37.4455 65.3932 37.4677 65.4081 37.4566C65.7321 37.2297 66.0561 37.0028 66.3801 36.776C65.892 37.2408 65.4017 37.7035 64.9136 38.1683C64.8987 38.1839 64.9179 38.2128 64.9371 38.1995C65.0671 38.1083 65.1992 38.0171 65.3293 37.9259C65.1417 38.1127 64.969 38.3285 64.8241 38.5598C64.3403 38.909 63.8969 39.4495 63.445 39.643C63.8628 39.5785 64.2806 39.514 64.6983 39.4473C64.7495 39.4384 64.8028 39.4317 64.8539 39.4228C64.7943 39.4339 64.7367 39.4495 64.6792 39.4628C64.1399 39.5941 63.622 39.8121 63.1488 40.1101C63.315 40.0834 63.4791 40.0567 63.6454 40.03C63.1871 40.228 62.7289 40.4237 62.2706 40.6217C62.4305 40.6195 62.5925 40.615 62.7523 40.6128C62.1342 40.9909 61.5161 41.369 60.8979 41.7471C61.1835 41.6048 61.467 41.4624 61.7527 41.3201C61.0322 41.7116 60.3118 42.103 59.5913 42.4945C59.8706 42.3521 60.1498 42.2098 60.4311 42.0697C59.958 42.4077 59.4869 42.7481 59.0137 43.0861C59.1906 43.0172 59.3654 42.9482 59.5423 42.8793C59.3441 43.0061 59.148 43.1306 58.9498 43.2574C59.0947 43.2263 59.2396 43.1951 59.3867 43.1662C59.2631 43.2797 58.5661 43.5599 58.4425 43.6733C58.4361 43.6778 58.4382 43.6845 58.4425 43.6911C58.5171 43.7734 59.6105 43.9247 60.6358 43.9225C60.8105 43.9225 60.9853 43.918 61.1516 43.9069C60.9512 43.8913 60.7487 43.8624 60.5505 43.8201C61.1303 43.6845 61.7079 43.5466 62.2876 43.4109L62.326 43.3597C61.8571 43.3931 61.3882 43.4242 60.9214 43.4576C61.4862 43.4087 62.0447 43.2641 62.5669 43.035C63.1019 42.7992 63.6028 42.4745 64.0376 42.0741C63.7605 42.1075 63.4813 42.1408 63.2042 42.1742C63.1317 42.1831 63.0571 42.192 62.9846 42.2009C63.0827 42.1564 63.1829 42.1141 63.2809 42.0697C63.98 41.7605 64.6813 41.4535 65.3804 41.1444C65.0564 41.1177 64.7324 41.0888 64.4063 41.0621C64.6152 40.9798 64.9413 40.8708 65.3293 40.7507C65.1289 40.6239 65.2653 40.3792 65.5211 40.288C65.7193 40.2169 66.4206 40.248 66.8469 40.2013C66.8895 40.1968 66.8874 40.1323 66.8469 40.1279C66.4632 40.0879 66.0199 40.0389 65.8024 40.01C65.4294 39.9589 65.4017 39.5652 65.7342 39.3828C65.8344 39.3272 65.9453 39.2938 66.0646 39.2871C66.493 39.2627 67.4181 39.4184 67.7975 39.4451C69.0295 39.5318 70.4725 38.8801 71.2697 37.8948L71.5084 37.7435C71.9901 37.4388 72.5656 37.9726 72.3247 38.5042C72.3226 38.5086 72.3205 38.5131 72.3184 38.5175C72.135 38.9068 71.8025 39.1937 71.4615 39.4428C71.4317 39.4651 71.4018 39.4851 71.3698 39.5051C72.5805 39.405 73.561 39.3138 73.9276 39.2849C73.8146 39.1181 73.7038 38.949 73.5908 38.7822C74.4519 38.8712 75.3109 38.9624 76.172 39.0514C75.5283 38.7934 74.8825 38.5331 74.2388 38.2751C76.5323 38.2462 78.8215 37.7835 80.9593 36.9183C80.7014 36.9361 80.4414 36.9539 80.1835 36.9717C81.3579 36.3422 82.5302 35.7128 83.7047 35.0855C83.2357 35.1812 82.7668 35.279 82.2979 35.3747C83.2251 34.674 84.1523 33.9734 85.0795 33.2728C84.2461 33.6487 83.4127 34.0268 82.5771 34.4027C84.2013 33.0548 85.8276 31.7047 87.4518 30.3568C86.9914 30.4613 86.531 30.5681 86.0685 30.6726C86.5928 30.1255 87.1172 29.5805 87.6415 29.0334C87.3388 29.109 87.0362 29.1846 86.7335 29.2602C87.2323 28.7598 87.9527 28.3794 88.7094 28.0903C88.7328 27.8834 88.7818 27.681 88.8564 27.4875C88.8735 27.3897 88.8927 27.2918 88.9161 27.1939C88.8095 27.3096 88.703 27.423 88.5964 27.5387C88.5964 26.9804 88.8927 26.431 89.3467 26.1352C89.0014 26.3443 88.6561 26.5533 88.3108 26.7624L88.3065 26.7557Z" fill="#EA5B0C"/>
<path d="M65.5301 40.8127C65.4406 40.7993 65.3745 40.7771 65.3277 40.7459C64.9397 40.866 64.6136 40.9728 64.4047 41.0573C64.7287 41.084 65.0527 41.1129 65.3788 41.1396C64.6797 41.4488 63.9784 41.7557 63.2793 42.0649C63.1813 42.1094 63.0811 42.1517 62.983 42.1961C63.0555 42.1872 63.1301 42.1783 63.2026 42.1694C63.4797 42.1361 63.7589 42.1027 64.036 42.0694C63.6012 42.4719 63.1003 42.7945 62.5653 43.0302C62.0431 43.2593 61.4846 43.4061 60.9198 43.4528C61.3887 43.4195 61.8576 43.3883 62.3244 43.355C62.4075 43.3483 62.4907 43.3438 62.5759 43.3372C62.48 43.3594 62.3841 43.3817 62.2882 43.4061C61.7084 43.5418 61.1308 43.6797 60.551 43.8154C60.7514 43.8576 60.9517 43.8866 61.1521 43.9021C62.4971 44.0044 63.8655 43.5151 65.0143 42.7544C65.9777 42.1161 66.9518 41.4666 67.8215 40.6992C66.8517 40.8482 65.9863 40.8749 65.5323 40.8104L65.5301 40.8127Z" fill="#4A6588"/>
<path d="M89.3366 17.0195C89.2449 17.0106 89.1533 17.0129 89.0574 17.0195C89.2151 17.0195 89.3728 17.0284 89.5284 17.0396C89.4645 17.0329 89.4005 17.024 89.3366 17.0195Z" fill="#41B7FF"/>
<path d="M90.1869 25.3186C90.108 25.3253 90.0292 25.332 89.9503 25.3386C89.9695 25.3453 89.9887 25.352 90.0079 25.3564C90.0633 25.3431 90.1208 25.332 90.1763 25.3231C90.1805 25.3231 90.1826 25.3186 90.1869 25.3164V25.3186Z" fill="#41B7FF"/>
<path d="M89.9759 24.5556C90.415 24.6535 90.852 24.7535 91.2911 24.8514C90.7241 24.8603 90.1592 24.9915 89.6413 25.2295C89.5305 25.2807 89.4196 25.3363 89.3131 25.3964C89.5262 25.3786 89.7393 25.3585 89.9504 25.3407C90.0292 25.3341 90.1081 25.3274 90.187 25.3207C90.1827 25.3207 90.1806 25.3252 90.1763 25.3274C90.1187 25.3363 90.0633 25.3474 90.0079 25.3608C89.669 25.4408 89.345 25.5988 89.0637 25.8145C88.744 26.0614 88.4797 26.3839 88.307 26.7576C88.6523 26.5485 88.9976 26.3394 89.3429 26.1304C88.8889 26.4262 88.5947 26.9733 88.5926 27.5338C88.6992 27.4182 88.8058 27.3048 88.9123 27.1891C88.8889 27.2892 88.8697 27.387 88.8527 27.4827C88.7781 27.6762 88.729 27.8786 88.7056 28.0855C88.6821 28.2923 88.6864 28.5036 88.7184 28.7105L88.7781 28.6704C88.7823 28.7972 88.7866 28.904 88.7908 28.9774C89.3642 27.8252 90.5514 27.0979 91.6193 26.9222C91.5191 26.891 91.4168 26.8621 91.3166 26.831C92.0861 26.504 93.2605 26.5863 94.0812 26.7109C93.8744 26.5863 93.6677 26.464 93.4609 26.3394C94.516 26.3483 95.5668 26.5396 96.5643 26.8955C96.4663 26.8288 96.364 26.762 96.268 26.6953C96.1252 26.5997 96.0528 26.4262 96.0762 26.2527C95.0616 25.7122 93.9746 25.3185 92.8854 25.1005C91.9603 24.7269 90.9671 24.54 89.9759 24.5556Z" fill="#F7B587"/>
<path d="M96.564 26.8949C95.5665 26.5413 94.5156 26.3478 93.4606 26.3389C93.6673 26.4634 93.8741 26.5858 94.0808 26.7103C93.2602 26.5858 92.0858 26.5035 91.3163 26.8304C91.4165 26.8616 91.5188 26.8905 91.619 26.9216C90.5511 27.0973 89.3639 27.8247 88.7905 28.9768C88.7053 29.1481 88.6328 29.326 88.5774 29.5151C88.9994 29.0613 89.4854 28.6632 90.0119 28.3251C90.647 27.9181 91.3398 27.6067 92.0453 27.4087C93.8016 26.9194 97.9473 28.2161 99.0898 28.5987C98.2137 28.0093 97.3654 27.431 96.564 26.8927V26.8949Z" fill="#F7956D"/>
<path d="M96.2212 23.3881C96.1956 23.4548 96.1636 23.5104 96.1338 23.5638C96.089 23.6506 96.0293 23.7217 95.9611 23.7773C95.7821 23.9353 95.5689 23.9753 95.3622 23.9664C95.7117 24.3245 96.1018 24.6715 96.4769 24.9606L97.0205 25.103C97.0119 24.9251 97.1164 24.6782 97.1228 24.5091C97.1398 24.0709 96.8691 23.566 96.7029 23.1634C96.5686 23.0611 96.4258 22.9744 96.2723 22.9121C96.2958 23.0745 96.283 23.2368 96.2233 23.3881H96.2212Z" fill="#F7B587"/>
<path d="M88.7825 21.9788C89.034 22.1012 89.4731 22.099 89.7182 21.9633C89.7949 21.921 89.2557 21.3494 89.0723 21.1559C89.2301 21.1492 89.5391 21.1714 89.6969 21.1648C89.6159 21.0625 89.5349 20.9579 89.4539 20.8556C88.8294 20.5731 88.1558 20.4108 87.4759 20.3818C87.7082 20.4797 87.9405 20.5798 88.1729 20.6777C87.2499 20.6421 86.3185 20.8445 85.4851 21.2582C85.6428 21.2515 85.8005 21.2426 85.9604 21.2359C85.402 21.3538 84.9778 21.8254 84.6389 22.3058C84.3 22.784 83.9867 23.3112 83.5049 23.6292C84.0037 23.4046 84.5046 23.1822 85.0034 22.9575C84.8968 23.0465 84.7881 23.1332 84.6815 23.2222C85.3593 23.1844 86.0265 23.0443 86.7 22.9553C87.3736 22.8663 88.0642 22.8352 88.7207 23.0087L88.4585 22.9798C88.9786 23.1354 89.5391 23.1466 90.0635 23.0087C90.1381 22.9886 90.2148 22.9642 90.2894 22.933C89.7139 22.7596 89.1512 22.4682 88.7825 21.9811V21.9788Z" fill="#FFE7DD"/>
<path d="M94.956 24.5643C94.956 24.5643 94.9629 24.5643 94.9675 24.5643C94.9629 24.5643 94.956 24.5596 94.9514 24.5596C94.9514 24.5596 94.9537 24.5596 94.956 24.5619V24.5643Z" fill="#EA5B0C"/>
<path d="M96.4731 24.9612C96.098 24.6721 95.7058 24.3251 95.3584 23.967C95.1687 23.9581 94.9854 23.9069 94.8426 23.8669C94.785 23.8513 94.6379 23.7512 94.5037 23.6534C94.493 23.6467 94.4824 23.6378 94.4717 23.6289C94.3779 23.5577 94.2969 23.4888 94.2692 23.4576C93.877 22.9972 93.9665 22.6124 93.828 22.0586C93.6447 21.8539 93.4528 21.6805 93.1438 21.4247C92.2827 20.7107 90.7203 20.5394 89.6674 20.208C90.0382 20.4771 90.4091 20.7441 90.78 21.0132C90.2663 20.8708 89.7547 20.7285 89.2411 20.5861C89.3114 20.6773 89.3817 20.7663 89.4521 20.8575C89.5331 20.9598 89.6141 21.0643 89.6951 21.1667C89.5373 21.1733 89.2283 21.1511 89.0705 21.1578C89.2539 21.3513 89.7931 21.9229 89.7164 21.9652C89.4713 22.0986 89.0322 22.1008 88.7807 21.9807C89.1515 22.4701 89.7143 22.7592 90.2876 22.9327C90.2983 22.9372 90.3089 22.9394 90.3217 22.9438C90.9079 23.1151 91.8095 23.2441 92.4106 23.342C94.5633 23.6912 94.1136 23.8847 94.947 24.5609L96.4731 24.9634V24.9612Z" fill="#EA5B0C"/>
<path d="M97.323 25.4557C96.5195 25.1821 95.7799 24.8285 94.9678 24.566C94.9635 24.566 94.9614 24.566 94.9571 24.566C94.9059 24.5593 94.8633 24.6127 94.8868 24.6661C94.9358 24.7773 95.0168 24.8574 95.1106 24.9241C95.2768 25.0197 102.922 29.4082 106.271 32.8157C106.288 32.8335 106.269 32.858 106.25 32.8446C104.623 31.668 102.771 30.3891 101.002 29.2569C99.9938 28.6119 98.9366 28.0536 97.9582 27.3596C97.3443 26.9237 96.7177 26.4499 96.1337 25.9339C96.1273 26.0229 96.1081 26.1163 96.0868 26.2008C96.0825 26.2186 96.0804 26.2364 96.0761 26.2564C96.0527 26.4299 96.1251 26.6034 96.268 26.699C96.366 26.7636 96.4662 26.8325 96.5642 26.8992C97.3657 27.4375 98.214 28.0158 99.09 28.6052C101.398 30.1577 103.888 31.7725 106.152 32.8602C106.271 32.918 106.384 32.8202 106.386 32.7112C106.382 32.7112 106.375 32.7112 106.371 32.7045C103.259 29.8308 100.149 27.7444 97.323 25.4624V25.4557Z" fill="#000404"/>
<path d="M99.2819 25.1989C99.397 25.3034 99.5121 25.408 99.6293 25.5125C99.5291 25.4146 99.4289 25.319 99.3309 25.2256C99.316 25.2122 99.3032 25.1989 99.2882 25.1855C99.2882 25.19 99.284 25.1944 99.2819 25.2011V25.1989Z" fill="#000404"/>
<path d="M96.1339 25.932C96.7179 26.448 97.3467 26.9217 97.9584 27.3577C98.9346 28.0517 99.994 28.6099 101.002 29.255C102.771 30.3893 104.624 31.6661 106.25 32.8427C106.269 32.856 106.288 32.8293 106.271 32.8138C102.923 29.4084 95.277 25.0178 95.1108 24.9221L95.1065 24.9199C95.422 25.2736 95.7694 25.6117 96.1339 25.932Z" fill="#2F3C3D"/>
<path d="M106.402 32.6673C104.441 29.927 101.881 27.5448 99.6283 25.5119C99.511 25.4073 99.3959 25.3028 99.2808 25.1982C99.1636 25.4963 98.846 25.6275 98.5327 25.6564C98.2108 25.6854 97.8293 25.6231 97.5202 25.5252C97.4542 25.503 97.3881 25.4807 97.322 25.4585C100.148 27.7406 103.258 29.8291 106.37 32.7006C106.374 32.7051 106.381 32.7073 106.385 32.7073C106.402 32.7073 106.415 32.6873 106.402 32.6695V32.6673ZM98.8013 26.0835H98.8077C99.4919 26.3838 100.123 26.7975 100.679 27.309L105.622 31.8665L98.7991 26.0857L98.8013 26.0835Z" fill="#2F3C3D"/>
<path d="M97.0171 25.1032L97.1258 25.1321C97.4434 25.2166 97.7695 25.25 98.0977 25.2322L99.2935 25.1699C99.3169 25.1365 98.8651 24.7584 98.6924 24.576C98.4857 24.3603 98.1872 24.0956 97.9677 23.8932C97.6544 23.6018 97.0938 23.3104 96.6995 23.1592C96.6995 23.1592 96.6995 23.1614 96.6995 23.1636C96.8636 23.5684 97.1364 24.0711 97.1194 24.5093C97.113 24.6761 97.0086 24.9252 97.0171 25.1032Z" fill="#EA5B0C"/>
<path d="M95.9587 23.7759C95.7604 23.9338 95.4919 23.9694 95.3086 23.9472C95.2937 23.9472 95.2787 23.9516 95.2659 23.9494C95.0208 23.9361 94.7331 23.8204 94.505 23.6514C94.6372 23.7515 94.7864 23.8493 94.8439 23.8649C94.9867 23.9049 95.17 23.9561 95.3597 23.965C95.5665 23.9739 95.7796 23.9338 95.9587 23.7759Z" fill="#4D4D4D"/>
<path d="M94.2692 23.456C94.2969 23.4894 94.3779 23.5561 94.4716 23.6273C94.3395 23.525 94.2308 23.4071 94.1669 23.2826C94.1136 23.1802 94.0603 23.0423 94.0112 22.8933C93.8386 22.3795 94.2393 21.8279 94.7935 21.8546C95.0408 21.8679 95.2859 21.9347 95.499 22.0614C95.6631 22.1593 95.8166 22.2905 95.9338 22.4462C96.0745 22.6175 96.1832 22.8244 96.2067 23.0223C96.2322 23.2514 96.1981 23.4271 96.1278 23.5606C96.1598 23.5072 96.1896 23.4516 96.2152 23.3849C96.2749 23.2336 96.2877 23.0713 96.2642 22.9089C96.1981 22.4529 95.8315 22.0058 95.3434 21.8524C94.9342 21.7234 94.1093 21.819 93.7022 21.6855C93.7576 21.8168 93.796 21.9391 93.8258 22.0548C93.9644 22.6086 93.877 22.9934 94.267 23.4538L94.2692 23.456Z" fill="#4D4D4D"/>
<path d="M95.3112 23.9469C95.2984 23.9469 95.2856 23.9447 95.2728 23.9425C94.8444 23.8668 94.3392 23.6756 94.2007 22.9571C94.1645 22.7681 94.2028 22.5768 94.2923 22.4144C94.2433 22.3077 94.2646 22.1831 94.352 22.103C94.4011 22.0563 94.4693 22.0185 94.5566 22.0163C94.595 22.0163 94.6483 22.0207 94.708 22.0318C94.806 21.9896 94.9126 21.9696 95.0234 21.9762C95.2366 21.9896 95.4476 22.0541 95.6309 22.172C95.7354 22.2387 95.8419 22.3366 95.9357 22.45C95.8185 22.2921 95.665 22.1631 95.5009 22.0652C95.2877 21.9407 95.0426 21.8717 94.7954 21.8584C94.2412 21.8317 93.8405 22.3833 94.0131 22.8971C94.0621 23.0439 94.1154 23.184 94.1687 23.2863C94.2348 23.4109 94.3435 23.5288 94.4735 23.6311C94.4842 23.64 94.4948 23.6466 94.5055 23.6555C94.7336 23.8224 95.0234 23.9402 95.2664 23.9536C95.2813 23.9536 95.2941 23.9536 95.3091 23.9514L95.3112 23.9469Z" fill="#3C3D3F"/>
<path d="M95.6344 22.1716C95.4511 22.0559 95.24 21.9914 95.0269 21.9759C94.916 21.9692 94.8095 21.9892 94.7114 22.0315C95.0056 22.0849 95.4894 22.2695 95.4937 22.4697C95.5001 22.6899 94.5835 22.939 94.3043 22.4363C94.3001 22.4296 94.2979 22.4229 94.2937 22.414C94.2041 22.5764 94.1658 22.7677 94.202 22.9568C94.3405 23.6752 94.8436 23.8665 95.2741 23.9421C95.2848 23.9421 95.2997 23.9443 95.3125 23.9465C95.4958 23.9688 95.7644 23.9354 95.9626 23.7753C96.0308 23.7197 96.0905 23.6507 96.1352 23.5618C96.2056 23.4261 96.2397 23.2526 96.2141 23.0235C96.1907 22.8278 96.082 22.6187 95.9413 22.4474C95.8475 22.3317 95.7409 22.2339 95.6365 22.1694L95.6344 22.1716Z" fill="black"/>
<path d="M95.4918 22.4684C95.4854 22.2682 95.0037 22.0836 94.7095 22.0302C94.6499 22.0191 94.5966 22.0146 94.5582 22.0146C94.4687 22.0169 94.4026 22.0547 94.3536 22.1014C94.2662 22.1815 94.2449 22.306 94.2939 22.4128C94.2982 22.4195 94.3003 22.4284 94.3046 22.435C94.5838 22.9377 95.5003 22.6886 95.4939 22.4684H95.4918ZM94.8076 22.1392C94.8268 22.1214 94.8545 22.1058 94.8886 22.1058C94.9802 22.1036 95.2573 22.1904 95.2595 22.286C95.2616 22.3728 94.8992 22.4728 94.7884 22.2727C94.7628 22.2282 94.7714 22.1748 94.8076 22.1414V22.1392Z" fill="#3C3D3F"/>
<path d="M95.259 22.2867C95.2569 22.191 94.9798 22.1043 94.8881 22.1065C94.8519 22.1065 94.8263 22.1221 94.8071 22.1399C94.7709 22.1732 94.7624 22.2266 94.7879 22.2711C94.8988 22.4713 95.2611 22.3712 95.259 22.2844V22.2867Z" fill="white"/>
<path d="M87.8971 18.7083C87.799 18.8039 87.701 18.8996 87.6029 18.9952C88.658 18.8818 89.0246 18.815 90.0776 18.6994C89.9198 18.7995 89.76 18.9018 89.6022 19.0019C90.1628 18.9174 90.7234 18.8351 91.2818 18.7505C91.1966 18.8328 91.1092 18.9151 91.0239 18.9974C91.4268 19.0352 91.8318 19.0708 92.2346 19.1086C92.1984 19.1465 92.1621 19.182 92.1259 19.2199C92.8762 19.4423 93.6264 19.6647 94.3767 19.8893C94.2936 19.9338 94.2105 19.9761 94.1273 20.0206C94.5153 20.2252 94.9053 20.4298 95.2933 20.6345C95.6769 20.888 96.0627 21.1438 96.4464 21.3974C96.359 21.3796 96.2716 21.364 96.1842 21.3462C96.6382 21.7332 98.1516 22.7987 98.4649 23.1456C98.4649 23.1456 98.4798 23.1501 98.4755 23.1212C98.4691 23.0589 98.3839 22.8431 97.915 22.0914C96.9601 20.5611 93.3749 17.3092 89.5276 17.0356C89.3699 17.0245 89.2143 17.0178 89.0566 17.0156C89.0417 17.0156 89.0289 17.0156 89.0139 17.0156C88.334 17.0156 87.6178 17.5828 87.2001 17.9543C86.8867 18.2189 86.307 18.7327 86.0768 19.0753H86.081C86.5862 18.9329 87.394 18.7683 87.8949 18.7061L87.8971 18.7083Z" fill="#5BE1F2"/>
<path d="M64.8555 25.6201C64.7724 25.6913 64.6978 25.7714 64.6403 25.867C64.6275 25.887 64.6168 25.907 64.6062 25.9293C64.5721 26.0027 64.5465 26.0805 64.5337 26.1628C64.6296 25.976 64.7383 25.7958 64.8534 25.6201H64.8555Z" fill="#41B7FF"/>
<path d="M59.7813 19.2344C59.9433 19.1632 60.1074 19.0965 60.2736 19.0342C60.1436 19.0631 60.0136 19.0942 59.8921 19.1476C59.8239 19.1765 59.7557 19.2188 59.7003 19.2722C59.728 19.2588 59.7557 19.2477 59.7813 19.2344Z" fill="#41B7FF"/>
<path d="M99.2937 25.1689L98.0979 25.2311C97.7718 25.2489 97.4435 25.2133 97.1259 25.131L97.0172 25.1021L96.4737 24.9598L94.9476 24.5572L94.9263 24.5527C94.9263 24.5527 94.9433 24.5594 94.9497 24.5616C94.954 24.5616 94.9604 24.5661 94.9646 24.5661C95.7767 24.8285 96.5163 25.1822 97.3199 25.4558C97.386 25.478 97.4521 25.5025 97.5181 25.5225C97.8272 25.6226 98.2087 25.6826 98.5306 25.6537C98.8439 25.627 99.1615 25.4936 99.2787 25.1955C99.2787 25.1911 99.283 25.1866 99.2851 25.18C99.2851 25.1755 99.2894 25.1711 99.2915 25.1666L99.2937 25.1689Z" fill="#FFE7DD"/>
<path d="M98.8103 26.0869H98.804L105.627 31.8655L100.684 27.308C100.13 26.7964 99.4967 26.3827 98.8125 26.0869H98.8103Z" fill="#2F3C3D"/>
<path opacity="0.55" d="M98.8103 26.0869H98.804L105.627 31.8655L100.684 27.308C100.13 26.7964 99.4967 26.3827 98.8125 26.0869H98.8103Z" fill="#FFE7DD"/>
<path d="M72.3139 38.5115C72.3139 38.5115 72.3182 38.5026 72.3203 38.4982C72.5612 37.9666 71.9857 37.435 71.504 37.7375L71.2652 37.8887C70.4681 38.8741 69.0251 39.5258 67.7931 39.439C67.4115 39.4124 66.4886 39.2567 66.0602 39.2811C65.9408 39.2878 65.83 39.3212 65.7298 39.3768C65.3973 39.5592 65.4271 39.9528 65.798 40.004C66.0154 40.0329 66.4609 40.0819 66.8424 40.1219C66.8851 40.1263 66.8851 40.1908 66.8424 40.1953C66.4183 40.242 65.7149 40.2109 65.5167 40.282C65.2609 40.3732 65.1266 40.6201 65.3248 40.7447C65.3717 40.7736 65.4378 40.7981 65.5273 40.8114C65.9813 40.8759 66.8467 40.8492 67.8165 40.7002C67.9892 40.6735 68.1661 40.6424 68.343 40.609C69.0165 40.48 69.7093 40.2932 70.3295 40.0396C70.7089 39.8839 71.0627 39.7037 71.3654 39.4969C71.3953 39.4769 71.4272 39.4546 71.4571 39.4346C71.7981 39.1877 72.1306 38.8986 72.3139 38.5093V38.5115Z" fill="#D01D11"/>
<path d="M99.3306 25.2226C99.2539 24.6977 98.9662 23.9526 98.4802 23.1229C98.4844 23.1519 98.4695 23.1474 98.4695 23.1474C98.1562 22.8004 96.6429 21.735 96.1888 21.348C96.2762 21.3658 96.3636 21.3814 96.451 21.3992C96.0673 21.1456 95.6816 20.8898 95.2979 20.6362C94.91 20.4316 94.5199 20.227 94.132 20.0224C94.2151 19.9779 94.2982 19.9356 94.3814 19.8911C93.6311 19.6687 92.8808 19.4463 92.1305 19.2216C92.1668 19.1838 92.203 19.1482 92.2392 19.1104C91.8364 19.0726 91.4314 19.037 91.0286 18.9992C91.1138 18.9169 91.2012 18.8346 91.2865 18.7523C90.7259 18.8368 90.1653 18.9191 89.6069 19.0036C89.7646 18.9036 89.9245 18.8012 90.0822 18.7012C89.0271 18.8146 88.6605 18.8813 87.6075 18.997C87.7056 18.9013 87.8036 18.8057 87.9017 18.71C87.4008 18.7723 86.593 18.9347 86.0878 19.0793C85.6871 19.5241 85.3098 19.989 84.9816 20.4205C84.4977 21.0566 83.9883 21.5993 83.5364 22.1888C82.8693 22.7626 81.9272 23.3565 80.9147 23.8814C80.5012 24.0949 80.0771 24.2974 79.6529 24.482C77.6493 21.8796 74.3391 17.6357 72.1693 15.1401C72.1842 15.1401 72.2013 15.1379 72.2162 15.1357C72.3377 15.1246 72.4762 15.0934 72.5999 15.0556L72.553 14.9489C72.4997 14.8332 72.4144 14.7531 72.3206 14.6797C72.067 14.4929 71.7217 14.3439 71.3679 14.246C71.3018 14.1726 71.2357 14.1036 71.1718 14.0369C72.2183 13.8857 73.4972 14.0191 74.0386 14.8221L74.0663 14.8021C73.9725 14.6508 73.851 14.5196 73.7125 14.4106C73.024 13.8923 72.0521 13.8301 71.2315 13.9057C71.1739 13.9124 71.1185 13.919 71.0609 13.9279C70.2041 13.1183 68.0918 12.2041 65.549 11.2722C63.8459 10.6472 61.9532 10.0133 60.1159 9.39491C59.9134 9.32596 59.7109 9.25923 59.5084 9.19028C57.6924 8.57639 55.9595 7.98252 54.5591 7.42868C53.7044 6.89264 52.839 6.37661 51.963 5.87838C51.5111 5.6226 51.0571 5.37126 50.5988 5.12436C48.7977 3.64747 48.2905 3.15591 50.2727 6.85928C50.2834 6.87929 50.294 6.89931 50.3047 6.91933C50.1896 6.90376 50.0702 6.91933 49.9701 6.97938C49.9402 6.99718 49.9146 7.01942 49.8891 7.04389C49.8613 7.03277 49.8358 7.02165 49.8081 7.01052C49.7846 7.00163 49.7761 7.03944 49.7974 7.04834C49.8187 7.05723 49.84 7.06613 49.8613 7.07503C49.8123 7.13508 49.7761 7.20626 49.7569 7.28188C49.6823 7.58438 49.8358 7.87131 49.9871 8.1182C50.1768 8.42737 50.3921 8.71652 50.6308 8.98565C50.4049 9.05238 50.294 9.29482 50.3175 9.53059C50.3452 9.81752 50.5434 10.0511 50.7139 10.2624C51.0848 10.7206 51.4983 11.1409 51.9459 11.5168C52.1591 11.697 52.3807 11.8638 52.6088 12.0217C52.547 11.9973 52.4873 11.975 52.4255 11.9506C52.3509 11.9239 52.2742 11.8972 52.1953 11.8861C52.0738 11.866 51.9161 11.866 51.8266 11.9706C51.7029 12.1129 51.7989 12.2998 51.9012 12.4199C52.0099 12.5467 52.1356 12.6601 52.2571 12.7713C52.8113 13.274 53.4337 13.7055 54.0923 14.0458C54.169 14.0858 54.2479 14.1237 54.3268 14.1615C54.3396 14.1748 54.3502 14.1882 54.363 14.2037L54.1477 14.1481C54.0007 14.1103 53.8515 14.0658 53.7023 14.0391C53.5829 14.0169 53.455 14.0124 53.3378 14.0569C53.2291 14.0992 53.1481 14.177 53.1097 14.2749C53.1097 14.2749 53.1097 14.2749 53.1076 14.2749C53.0884 14.2749 53.0841 14.2994 53.0991 14.3105C53.0756 14.3883 53.0777 14.4751 53.114 14.5641C53.1587 14.6753 53.2376 14.7687 53.3186 14.851C53.4102 14.9444 53.5104 15.0311 53.6085 15.1157C53.811 15.2869 54.022 15.4471 54.2436 15.5917C54.7168 15.9008 55.2284 16.141 55.7613 16.3123C55.5929 16.3501 55.4351 16.4302 55.3307 16.5792C55.3179 16.597 55.3073 16.6148 55.2966 16.6348C55.271 16.6393 55.2433 16.6437 55.2177 16.646C55.1943 16.6504 55.2028 16.6882 55.2284 16.6838C55.2454 16.6815 55.2625 16.6793 55.2774 16.6771C55.222 16.8105 55.2284 16.9618 55.303 17.093C55.3989 17.2621 55.5694 17.3733 55.7335 17.46C55.9552 17.5779 56.1854 17.6824 56.4135 17.7848C57.3385 18.1962 58.302 18.5076 59.2867 18.7123C59.7151 18.8012 60.1457 18.8702 60.5784 18.9214C60.4739 18.9569 60.3716 18.9948 60.2693 19.0326C60.1031 19.0948 59.9389 19.1616 59.7769 19.2327C59.7492 19.2439 59.7215 19.2572 59.696 19.2706C59.6618 19.2861 59.6277 19.3017 59.5936 19.3173C59.5723 19.3284 59.5915 19.3618 59.6128 19.3506C59.6213 19.3462 59.6299 19.344 59.6384 19.3395C59.6277 19.3551 59.6171 19.3684 59.6107 19.384C59.6 19.4107 59.5936 19.4352 59.5894 19.4618C59.5745 19.5597 59.6107 19.6576 59.6725 19.7354C59.6959 19.7643 59.7215 19.7888 59.7471 19.8133C59.8366 19.8933 59.9453 19.9512 60.0476 20.009C60.2075 20.1002 60.3716 20.1847 60.54 20.2626C60.8725 20.416 61.2157 20.5451 61.5674 20.6451C61.9169 20.7452 62.2729 20.8142 62.631 20.8564C62.6054 20.8653 62.5798 20.8742 62.5542 20.8831C62.4328 20.9143 62.3113 20.9543 62.2026 21.0121C62.0725 21.0811 61.9574 21.1945 61.9532 21.3569C61.9489 21.5259 62.0683 21.6683 62.1834 21.7728C62.3347 21.9107 62.5138 22.0219 62.68 22.1421C62.8825 22.2866 63.0829 22.4334 63.2853 22.578C62.9827 22.6625 62.6544 22.8939 62.6971 23.2609C62.7162 23.4366 62.8186 23.59 62.9486 23.699C63.102 23.828 63.2853 23.8836 63.4814 23.8903C63.6818 23.8948 63.8779 23.8503 64.0697 23.7947C64.0783 23.8102 64.0868 23.8236 64.0932 23.8392C64.0719 23.857 64.0505 23.877 64.0292 23.897C64.0079 23.9148 63.9845 23.9304 63.9632 23.9481C63.9525 23.957 63.9568 23.9682 63.9632 23.9748C63.9248 24.026 63.8907 24.0816 63.8672 24.1461C63.7926 24.3396 63.8161 24.5576 63.8949 24.7444C63.9802 24.9468 64.1273 25.1092 64.3042 25.2293C64.496 25.3583 64.7134 25.4362 64.9308 25.5007C64.9031 25.5385 64.8776 25.5785 64.852 25.6186C64.7369 25.7943 64.6282 25.9744 64.5323 26.1613C64.528 26.1702 64.5216 26.1791 64.5173 26.188C64.4982 26.2258 64.479 26.2636 64.4619 26.3014C64.4513 26.3236 64.4832 26.3437 64.4939 26.3214C64.5003 26.3081 64.5088 26.2947 64.5152 26.2814L64.5237 26.2747C64.5237 26.3392 64.5344 26.4037 64.5557 26.466C64.6154 26.6328 64.7539 26.7507 64.9138 26.8041C65.0843 26.8597 65.2676 26.8486 65.436 26.7907C65.5191 26.7618 65.6001 26.7218 65.6769 26.6751C65.7131 26.7018 65.7472 26.7285 65.7834 26.7529C65.7749 26.7685 65.7664 26.7863 65.76 26.8019C65.7578 26.8085 65.7557 26.8152 65.7557 26.8219C65.7195 27.0599 65.8133 27.3112 65.9944 27.458C66.1863 27.6137 66.4378 27.6315 66.6701 27.6004C66.7618 27.587 66.8534 27.567 66.9451 27.5447C66.9962 27.5781 67.0474 27.6093 67.1007 27.6426C67.0815 27.9006 67.1007 28.1609 67.1668 28.41C67.1604 28.4834 67.1646 28.5568 67.1774 28.628C67.2136 28.8103 67.3245 28.9638 67.4758 29.0572C67.6229 29.1507 67.7998 29.1907 67.9724 29.184C68.1899 29.1773 68.4009 29.1017 68.5991 29.0128C68.6417 28.9927 68.6844 28.9727 68.7249 28.9527C68.7249 29.1974 68.7995 29.4331 68.9465 29.6244C69.0787 29.7979 69.2577 29.9291 69.4581 30.0048C69.5668 30.0448 69.6798 30.0693 69.7949 30.0737C69.8012 30.1805 69.8226 30.2872 69.8588 30.3873C69.8801 30.4452 69.9036 30.5119 69.9462 30.5586C69.9931 30.612 70.0613 30.6431 70.1252 30.6654C70.219 30.6965 70.3192 30.7121 70.4172 30.721C67.9639 33.1343 65.549 35.988 64.2616 38.5125C64.2616 38.5125 61.7294 41.3751 57.298 43.4459C57.1744 43.5037 57.6476 43.5927 58.4384 43.6839C58.432 43.6772 58.432 43.6727 58.4384 43.6661C58.562 43.5526 59.259 43.2724 59.3826 43.1589C59.2377 43.1901 59.0927 43.2212 58.9457 43.2501C59.1439 43.1234 59.34 42.9988 59.5382 42.872C59.3613 42.941 59.1865 43.0099 59.0096 43.0789C59.4828 42.7408 59.9539 42.4005 60.427 42.0624C60.1478 42.2047 59.8686 42.3471 59.5872 42.4872C60.3077 42.0958 61.0281 41.7043 61.7486 41.3128C61.4629 41.4552 61.1795 41.5975 60.8938 41.7399C61.512 41.3618 62.1301 40.9836 62.7482 40.6055C62.5884 40.6077 62.4264 40.6122 62.2665 40.6144C62.7248 40.4165 63.183 40.2207 63.6413 40.0228C63.475 40.0494 63.3109 40.0761 63.1447 40.1028C63.6179 39.8048 64.1379 39.5868 64.6751 39.4556C64.6815 39.4511 64.6879 39.4445 64.6942 39.44C64.2765 39.5045 63.8587 39.569 63.4409 39.6357C63.8928 39.4445 64.3362 38.9017 64.82 38.5525C64.9649 38.3212 65.1376 38.1077 65.3252 37.9186C65.1951 38.0098 65.063 38.101 64.933 38.1922C64.9159 38.2056 64.8946 38.1766 64.9095 38.1611C65.3976 37.6962 65.8879 37.2336 66.376 36.7687C66.052 36.9956 65.728 37.2224 65.404 37.4493C65.3891 37.4604 65.3678 37.4382 65.3784 37.4226C65.8047 36.7709 66.344 36.206 66.96 35.7544C66.9557 35.7544 66.9536 35.7589 66.9493 35.7611C66.9302 35.7722 66.9131 35.7478 66.9259 35.73C67.3714 35.1828 67.9298 34.7446 68.5501 34.4421C68.3412 34.5066 68.1323 34.5711 67.9256 34.6334C67.9064 34.6401 67.8936 34.6134 67.9064 34.6001C68.4009 34.0596 68.9785 33.6058 69.6115 33.2566C69.5966 33.2566 69.5817 33.2344 69.5966 33.2232C70.3789 32.5849 71.2698 32.1022 72.2162 31.802L72.0137 31.8442C71.9903 31.8487 71.9796 31.8131 72.0031 31.8064C73.1263 31.5017 74.2496 31.197 75.3729 30.8922C75.0894 30.9523 74.8059 31.0146 74.5225 31.0746C74.5011 31.0791 74.4884 31.0502 74.5075 31.039C74.823 30.8611 75.147 30.6987 75.4752 30.5519C76.5495 30.0737 77.6877 29.7712 78.8493 29.6422C78.3804 29.6155 77.9136 29.5888 77.4447 29.5621C77.4234 29.5621 77.4191 29.531 77.4404 29.5221C78.5403 29.1418 79.6422 28.7614 80.7421 28.3833C80.401 28.3366 80.06 28.2921 79.719 28.2454C79.736 28.2343 79.7531 28.2209 79.7701 28.2098C80.0643 28.2409 80.3584 28.2565 80.6547 28.2498C81.3176 28.2365 81.9762 28.1275 82.6092 27.9273C83.2466 27.329 83.626 26.6306 83.6174 25.7965C83.6004 24.0949 85.9663 24.4619 87.4988 25.0425C87.7504 25.1381 87.9955 25.2582 88.2299 25.4117C88.4431 25.5518 88.7266 25.6831 89.0591 25.8054C89.3404 25.5896 89.6623 25.4317 90.0033 25.3516C89.9841 25.345 89.965 25.3383 89.9458 25.3338C89.7326 25.3516 89.5195 25.3717 89.3085 25.3895C89.415 25.3272 89.5259 25.2738 89.6367 25.2226C90.1547 24.9846 90.7195 24.8534 91.2865 24.8445C90.8474 24.7466 90.4104 24.6466 89.9714 24.5487C90.9625 24.5331 91.9557 24.72 92.8808 25.0936C93.97 25.3116 95.057 25.7053 96.0716 26.2458C96.0738 26.228 96.0759 26.2102 96.0823 26.1902C96.1036 26.1057 96.1228 26.0122 96.1292 25.9233C95.7647 25.603 95.4173 25.2649 95.1018 24.9112C95.1018 24.9112 95.1018 24.9112 95.1061 24.9135C95.0123 24.8467 94.9313 24.7667 94.8823 24.6555C94.8588 24.6043 94.9036 24.5487 94.9526 24.5554C94.9526 24.5554 94.9505 24.5554 94.9483 24.5531C94.9398 24.5509 94.9313 24.5465 94.9249 24.5442L94.9462 24.5487C94.1107 23.8725 94.5625 23.679 92.4098 23.3298C91.8087 23.2319 90.9071 23.1052 90.3209 22.9317C90.3102 22.9294 90.2996 22.925 90.2868 22.9205C90.2122 22.9517 90.1355 22.9762 90.0609 22.9962C89.5365 23.1341 88.9759 23.1252 88.4559 22.9673L88.718 22.9962C88.0616 22.8205 87.3688 22.8538 86.6974 22.9428C86.026 23.0318 85.3567 23.1719 84.6789 23.2097C84.7855 23.1207 84.8942 23.034 85.0008 22.945C84.502 23.1697 84.0011 23.3921 83.5023 23.6167C83.984 23.2987 84.2974 22.7715 84.6363 22.2933C84.9752 21.8151 85.3993 21.3413 85.9578 21.2234C85.8001 21.2301 85.6423 21.239 85.4825 21.2457C86.318 20.832 87.2473 20.6318 88.1703 20.6652C87.9379 20.5673 87.7056 20.4672 87.4733 20.3693C88.1532 20.3983 88.8268 20.5606 89.4513 20.8431C89.3809 20.7519 89.3106 20.6629 89.2403 20.5717C89.7539 20.7141 90.2655 20.8564 90.7792 20.9988C90.4083 20.7297 90.0374 20.4628 89.6666 20.1936C90.7195 20.525 92.2819 20.6941 93.143 21.4103C93.4499 21.6661 93.6417 21.8396 93.8272 22.0442C93.7973 21.9285 93.759 21.8062 93.7035 21.675C94.1107 21.8062 94.9377 21.7128 95.3448 21.8418C95.835 21.9953 96.1995 22.4446 96.2656 22.8983C96.419 22.9606 96.5619 23.0473 96.6961 23.1496C96.6961 23.1496 96.6961 23.1474 96.6961 23.1452C97.0883 23.2964 97.651 23.5878 97.9644 23.8792C98.1839 24.0838 98.4802 24.3463 98.6891 24.562C98.8638 24.7444 99.3157 25.1225 99.2901 25.1559C99.2901 25.1604 99.2859 25.1648 99.2837 25.1693C99.2987 25.1826 99.3114 25.1959 99.3264 25.2093L99.3306 25.2226ZM71.9988 14.9466C71.8645 14.7932 71.7345 14.6486 71.6109 14.5107C71.743 14.5618 71.8624 14.6174 71.9626 14.6708C72.0499 14.7175 72.1331 14.7709 72.2077 14.8287C72.2418 14.8554 72.2738 14.8843 72.3036 14.9177C72.2034 14.9333 72.1011 14.94 71.9988 14.9466Z" fill="#41B7FF"/>
<path d="M65.8422 26.6657C65.8571 26.6212 65.8742 26.5745 65.8912 26.5322C65.823 26.5834 65.7527 26.6323 65.6781 26.6768C65.7143 26.7035 65.7484 26.7302 65.7847 26.7547C65.7975 26.7324 65.8103 26.7124 65.823 26.6901C65.8294 26.6813 65.8358 26.6746 65.8422 26.6657Z" fill="#41B7FF"/>
<path d="M67.1252 27.4426C67.1252 27.4426 67.1124 27.4315 67.106 27.4248L67.0996 27.4893C67.0996 27.4893 67.0954 27.5049 67.0847 27.5093C67.04 27.5227 66.9931 27.5338 66.9483 27.5449C66.9995 27.5783 67.0506 27.6094 67.1039 27.6428C67.1039 27.6183 67.106 27.5938 67.1082 27.5694C67.1124 27.5271 67.1167 27.4849 67.1231 27.4426H67.1252Z" fill="#41B7FF"/>
<path d="M50.0082 7.13633L62.2173 13.4777C62.2386 13.4954 62.262 13.5155 62.2855 13.5333C62.294 13.5422 62.3047 13.5399 62.3111 13.5333C62.3175 13.5266 62.3217 13.5155 62.3111 13.5066C61.6716 12.7748 60.9597 12.1142 60.2265 11.4892C59.391 10.7774 58.517 10.1124 57.6282 9.47401C56.701 8.81119 55.7525 8.17728 54.7891 7.57006C54.7145 7.52335 54.6378 7.47664 54.5632 7.42993C53.7085 6.89389 52.8431 6.37787 51.967 5.87963C51.5152 5.62385 51.0612 5.37251 50.6029 5.12562C50.2256 4.92321 49.8484 4.72525 49.4668 4.53174C49.3752 4.48503 49.2857 4.44055 49.194 4.39384C49.1727 4.38272 49.1535 4.41608 49.1748 4.4272C49.2174 4.44945 49.2601 4.46946 49.3027 4.49171L58.8879 11.1489C58.5085 10.9309 58.1249 10.7218 57.7369 10.5194C56.8971 10.079 56.0424 9.67197 55.1813 9.2805C54.333 8.89571 53.4783 8.53093 52.6193 8.17283C51.7837 7.82362 50.9461 7.48109 50.1105 7.13411C50.0381 7.10297 49.9656 7.07405 49.8931 7.04291C49.8654 7.03179 49.8398 7.02067 49.8121 7.00955C49.7887 7.00065 49.7802 7.03847 49.8015 7.04736C49.8228 7.05626 49.8441 7.06516 49.8654 7.07405C49.9123 7.09407 49.9592 7.11409 50.0061 7.13188L50.0082 7.13633Z" fill="#FFE7DD"/>
<path d="M50.5853 9.2864C50.5619 9.27973 50.5512 9.31754 50.5747 9.32422C50.6215 9.33756 50.6684 9.35091 50.7175 9.36425L64.8129 15.5432C64.8363 15.561 64.8619 15.5788 64.8854 15.5966C64.9045 15.6122 64.9237 15.5766 64.9045 15.5632C64.1095 14.9693 63.2761 14.4355 62.4192 13.944C61.5155 13.4279 60.5883 12.9586 59.6462 12.5249C58.6892 12.0845 57.7151 11.6797 56.7346 11.3038C55.7563 10.9301 54.7715 10.5809 53.7783 10.2562C52.8319 9.94478 51.8791 9.65563 50.9242 9.37982C50.8134 9.34868 50.7004 9.31532 50.5896 9.28418L50.5853 9.2864Z" fill="#FFE7DD"/>
<path d="M65.2515 16.0843C65.2877 16.1021 65.3218 16.1177 65.358 16.1355C65.3793 16.1466 65.3985 16.111 65.3772 16.1021C64.5587 15.6995 63.7296 15.3236 62.8898 14.9766C62.0393 14.6252 61.1804 14.3005 60.3107 14.0046C59.4453 13.711 58.5714 13.4463 57.689 13.2083C56.8066 12.9726 55.9177 12.7657 55.0247 12.5878C54.1358 12.4121 53.2428 12.263 52.3475 12.1452C52.2324 12.1296 52.1195 12.1162 52.0044 12.1007C51.9809 12.0985 51.9809 12.1385 52.0044 12.1407C52.0449 12.1452 52.0832 12.1518 52.1237 12.1563L65.2536 16.0843H65.2515Z" fill="#FFE7DD"/>
<path d="M53.2325 14.327L66.4476 17.3742C66.4817 17.3898 66.5158 17.4031 66.5478 17.4187C66.5712 17.4276 66.5798 17.3898 66.5584 17.3809C65.7059 17.0094 64.8405 16.6647 63.9644 16.3555C63.1225 16.0574 62.2699 15.7905 61.4088 15.5592C60.5562 15.3279 59.6951 15.1299 58.8276 14.9653C57.9601 14.7985 57.0862 14.6651 56.2102 14.5561C55.2958 14.4449 54.3792 14.3603 53.4606 14.3025C53.3455 14.2958 53.2304 14.2869 53.1131 14.2803C53.1131 14.2803 53.1131 14.2803 53.111 14.2803C53.0918 14.2803 53.0876 14.3047 53.1025 14.3159C53.1046 14.3159 53.1067 14.3203 53.111 14.3203C53.1515 14.3225 53.192 14.3248 53.2304 14.3292L53.2325 14.327Z" fill="#FFE7DD"/>
<path d="M66.3249 18.1955C66.3441 18.2044 66.3633 18.2133 66.3846 18.2222C66.4059 18.2333 66.4272 18.1977 66.4038 18.1888C65.6897 17.8619 64.9629 17.5638 64.2211 17.3103C63.5263 17.0723 62.8186 16.8721 62.1003 16.7186C61.4097 16.5718 60.7106 16.4695 60.0072 16.4117C59.2825 16.3538 58.5536 16.3427 57.8267 16.3761C57.0551 16.4094 56.2857 16.4895 55.5226 16.6029C55.4501 16.6141 55.3755 16.6252 55.3031 16.6363C55.2775 16.6408 55.2498 16.6452 55.2242 16.6474C55.2007 16.6519 55.2093 16.6897 55.2349 16.6852C55.2519 16.683 55.269 16.6808 55.2839 16.6786C55.2881 16.6786 55.2945 16.6786 55.2988 16.6786L66.327 18.1955H66.3249Z" fill="#FFE7DD"/>
<path d="M59.7838 19.2374C59.7561 19.2485 59.7284 19.2619 59.7028 19.2752C59.6687 19.2908 59.6346 19.3064 59.6005 19.3219C59.5792 19.3331 59.5984 19.3664 59.6197 19.3553C59.6282 19.3509 59.6367 19.3486 59.6453 19.3442C59.6495 19.342 59.6559 19.3397 59.6602 19.3375L67.1054 19.253C67.1203 19.2597 67.1353 19.2663 67.148 19.2708C67.1715 19.2797 67.18 19.2419 67.1587 19.233C66.6813 19.0239 66.1889 18.8526 65.6859 18.7214C65.1999 18.5968 64.7032 18.5123 64.2045 18.4701C63.7079 18.4278 63.207 18.43 62.7103 18.4723C62.2116 18.5168 61.7171 18.6035 61.2332 18.7303C61.0158 18.7881 60.7984 18.8549 60.5852 18.926C60.4808 18.9616 60.3785 18.9994 60.2762 19.0372C60.1099 19.0995 59.9458 19.1662 59.7838 19.2374Z" fill="#FFE7DD"/>
<path d="M62.2999 21.0033C62.2636 21.0211 62.2274 21.0389 62.1912 21.0567C62.1699 21.0678 62.189 21.1034 62.2104 21.0901C62.2253 21.0834 62.2402 21.0767 62.2551 21.07L68.1167 20.6563C68.1422 20.6608 68.1678 20.6652 68.1934 20.6697C68.2168 20.6741 68.2275 20.6363 68.2041 20.6319C67.846 20.5674 67.4858 20.5229 67.1255 20.4895C66.7078 20.4517 66.29 20.4317 65.8701 20.4295C65.4353 20.425 65.0005 20.4406 64.5678 20.4762C64.1543 20.5118 63.7429 20.5674 63.3379 20.6586C63.1013 20.7119 62.8669 20.7787 62.6388 20.861C62.6132 20.8699 62.5876 20.8788 62.5621 20.8876C62.4725 20.9232 62.3851 20.9588 62.2999 21.0011V21.0033Z" fill="#FFE7DD"/>
<path d="M67.87 21.3765C67.5119 21.3142 67.1474 21.292 66.7829 21.3075C66.4227 21.3231 66.0625 21.372 65.7108 21.4588C65.357 21.5455 65.0095 21.6656 64.677 21.8191C64.3466 21.9703 64.0269 22.155 63.7306 22.3707C63.4322 22.5865 63.153 22.8311 62.8994 23.1047C62.8695 23.1381 62.8376 23.1714 62.8077 23.2048C62.7907 23.2226 62.8184 23.2515 62.8354 23.2337C62.8439 23.2248 62.8525 23.2159 62.861 23.2048L67.8273 21.4121C67.838 21.4121 67.8486 21.4165 67.8614 21.4165C67.8849 21.421 67.8955 21.3831 67.8721 21.3787L67.87 21.3765Z" fill="#FFE7DD"/>
<path d="M63.97 23.9779C63.97 23.9779 63.9871 23.9868 63.9977 23.9779C64.0169 23.9623 64.0361 23.949 64.0553 23.9334L67.6191 22.4143C67.6426 22.412 67.6639 22.4076 67.6873 22.4054C67.7108 22.4031 67.7108 22.3631 67.6873 22.3653C67.1608 22.4276 66.6408 22.5499 66.1377 22.7279C65.639 22.9058 65.1573 23.1394 64.7054 23.4218C64.4731 23.5664 64.2514 23.7266 64.0361 23.8978C64.0148 23.9156 63.9914 23.9312 63.97 23.949C63.9594 23.9579 63.9636 23.969 63.97 23.9757V23.9779Z" fill="#FFE7DD"/>
<path d="M68.2351 23.2216C68.2478 23.2171 68.2628 23.2149 68.2756 23.2105C68.299 23.2038 68.2883 23.166 68.2649 23.1727C67.9494 23.2505 67.6404 23.3595 67.342 23.493C67.0436 23.6286 66.7558 23.7888 66.4809 23.9734C66.2102 24.158 65.9523 24.3649 65.7135 24.594C65.4727 24.8231 65.251 25.0744 65.0506 25.3413C65.0123 25.3947 64.9739 25.4481 64.9355 25.5014C64.9078 25.5393 64.8823 25.5793 64.8567 25.6193C64.7416 25.795 64.6329 25.9752 64.537 26.162C64.5327 26.1709 64.5263 26.1798 64.522 26.1887C64.5029 26.2265 64.4837 26.2644 64.4666 26.3022C64.456 26.3244 64.4879 26.3444 64.4986 26.3222C64.505 26.3088 64.5135 26.2955 64.5199 26.2822L64.5284 26.2755L68.2351 23.2216Z" fill="#FFE7DD"/>
<path d="M65.7787 26.9993C65.7787 27.0371 65.7787 27.0749 65.7787 27.1149C65.7787 27.1394 65.8171 27.1416 65.8171 27.1149C65.8171 27.1082 65.8171 27.1016 65.8171 27.0971L69.1358 23.9009C69.1528 23.892 69.1699 23.8853 69.1891 23.8764C69.2125 23.8653 69.1912 23.8319 69.1699 23.8431C68.8715 23.9787 68.5816 24.13 68.2981 24.2968C68.0168 24.4636 67.7439 24.6438 67.4818 24.8417C67.2196 25.0375 66.9681 25.2466 66.7272 25.469C66.497 25.6825 66.2754 25.9049 66.0942 26.1674C66.0153 26.2831 65.945 26.4054 65.8917 26.5366C65.8725 26.5811 65.8555 26.6256 65.8427 26.6701C65.8086 26.7768 65.7872 26.888 65.7809 27.0037L65.7787 26.9993Z" fill="#FFE7DD"/>
<path d="M67.2403 28.6334C67.2552 28.6734 67.2723 28.7157 67.2915 28.7535C67.3021 28.7757 67.3341 28.7557 67.3234 28.7335C67.3234 28.7313 67.3213 28.7268 67.3192 28.7246L69.9537 24.5363C69.9537 24.5363 69.9686 24.5297 69.9771 24.5274C70.0006 24.5185 69.9899 24.4807 69.9665 24.4896C69.6212 24.6298 69.2844 24.7877 68.9625 24.979C68.6428 25.168 68.3402 25.3882 68.0716 25.6485C67.8094 25.9042 67.5813 26.2001 67.4151 26.5315C67.2723 26.8162 67.17 27.1276 67.1252 27.4456C67.1188 27.4879 67.1146 27.5302 67.1103 27.5724C67.1082 27.5969 67.106 27.6214 67.106 27.6458C67.0869 27.9038 67.106 28.1641 67.1721 28.4132C67.1913 28.4888 67.2147 28.5622 67.2424 28.6356L67.2403 28.6334Z" fill="#FFE7DD"/>
<path d="M69.9342 30.3896C69.9342 30.3762 69.9342 30.3629 69.9342 30.3495L71.6969 26.5372C71.6969 26.5372 71.7161 26.5216 71.7246 26.5149C71.7438 26.4994 71.7246 26.466 71.7054 26.4816C71.4795 26.6551 71.2685 26.8508 71.0788 27.0688C70.8891 27.2845 70.7186 27.5203 70.5715 27.7694C70.4244 28.0185 70.2987 28.2832 70.1964 28.5568C70.094 28.8304 70.0173 29.1151 69.9662 29.4042C69.915 29.6912 69.8916 29.9848 69.8958 30.2761C69.8958 30.314 69.8958 30.3495 69.8979 30.3874C69.8979 30.4118 69.9363 30.414 69.9363 30.3874L69.9342 30.3896Z" fill="#FFE7DD"/>
<path d="M68.9005 29.4465C68.9005 29.4465 68.8963 29.4354 68.8941 29.4287L71.3432 25.0669C71.3432 25.0669 71.3624 25.0558 71.373 25.0492C71.3943 25.0358 71.3752 25.0024 71.3538 25.0158C71.0448 25.1982 70.74 25.3939 70.4544 25.6141C70.1709 25.8321 69.9002 26.0723 69.6615 26.3437C69.4249 26.6128 69.2181 26.9108 69.0604 27.2378C68.9069 27.5603 68.7982 27.9095 68.7534 28.2654C68.7087 28.6191 68.7257 28.9838 68.8238 29.3286C68.8366 29.3709 68.8494 29.4131 68.8643 29.4554C68.8728 29.4798 68.909 29.4687 68.9005 29.4443V29.4465Z" fill="#FFE7DD"/>
<path d="M70.822 22.7557C70.4426 23.007 70.5449 23.612 70.984 23.7121L71.779 23.8945C71.5531 24.2904 71.8174 24.7931 72.2586 24.8087L73.2924 24.842C73.0089 24.9733 72.7148 25.1134 72.5208 25.3647C72.3268 25.6183 74.0661 25.7651 74.4221 25.7006C74.1556 25.943 74.3539 26.4012 74.7055 26.3523L75.4707 26.2455C75.3088 26.4991 75.07 26.9239 75.3173 27.0863C76.1422 27.6334 79.0601 25.8518 79.4268 25.6383C78.523 25.447 77.4104 25.1868 76.6516 24.8509C77.0757 24.8487 77.4999 24.8442 77.9241 24.842C77.2186 24.6329 76.513 24.4216 75.8097 24.2126C76.1784 24.108 76.5471 24.0035 76.9159 23.8989C76.172 23.632 75.4281 23.3673 74.6864 23.1004L75.8224 22.9514C74.6906 22.3242 73.5588 21.6969 72.427 21.0675C73.3521 21.2432 74.2771 21.4189 75.2043 21.5946C74.1791 21.0986 73.1517 20.6004 72.1265 20.1044L72.7787 19.9754C72.3567 19.6907 71.9346 19.406 71.5126 19.1213C71.7108 19.0723 71.9069 19.0212 72.1052 18.9722C71.2163 18.2916 70.3296 17.6088 69.4408 16.9282C70.0717 17.0772 70.7048 17.2262 71.3357 17.3752C69.9993 16.5612 68.6628 15.7449 67.3264 14.9308C67.8635 15.042 68.4007 15.1554 68.9378 15.2666C67.8635 14.6928 66.7893 14.1212 65.715 13.5473C66.0752 13.5473 66.4333 13.5451 66.7935 13.5429C65.6916 13.3538 64.6514 12.8 63.8521 11.9859C62.6691 11.5477 61.3306 11.1207 59.749 10.6358C59.4975 10.5579 62.0361 12.0304 63.8926 13.3382C65.2354 14.2835 65.9495 15.2266 67.1367 16.3765C66.2713 15.905 65.3548 15.3934 65.3441 15.5691C65.3313 15.7627 67.2156 17.5821 68.4582 18.365C68.0788 18.3806 67.8955 17.8712 67.0408 17.7623C66.8212 17.7356 66.6571 18.1938 66.8468 18.365C67.838 19.2503 68.5136 19.3303 69.185 19.7441L67.9488 19.4972C67.6994 19.5706 67.7165 19.9442 67.9722 19.9909L70.4469 21.023L68.8909 20.9251C68.7374 21.0185 68.7737 21.261 68.9484 21.2988L71.0202 22.6356L70.8327 22.7601L70.822 22.7557Z" fill="#F7B587"/>
<path d="M83.4673 30.7598C82.312 32.6459 80.6836 34.2207 78.7887 35.275C79.4239 34.6077 80.2573 33.7225 80.8285 33.1219L81.2591 32.6682C80.6217 33.0997 79.5752 33.8092 78.9379 34.2407L78.7183 34.3897C79.0359 34.0161 79.4303 33.5512 79.6562 33.2843L79.9205 32.9729C79.1255 33.5579 78.2302 34.0094 77.2796 34.2363C76.4632 34.4409 75.5957 34.4876 74.7623 34.3897L75.0778 34.432L75.3954 34.4587L75.713 34.4698C76.9769 34.4832 78.243 34.1451 79.3386 33.4889L78.9507 33.936C78.7503 34.1673 78.2111 34.7901 78.0192 35.0147C78.2473 34.8613 78.7738 34.5076 79.0082 34.3519C79.2789 34.1695 79.8544 33.7825 80.3148 33.4711C79.7009 34.1228 78.9485 34.9213 78.4349 35.4707L78.1812 35.7421C80.3596 34.67 82.2374 32.9262 83.4694 30.762L83.4673 30.7598Z" fill="#F7B587"/>
</svg>
