<svg width="36" height="36" viewBox="0 0 36 36" fill="none" xmlns="http://www.w3.org/2000/svg">
<path fill-rule="evenodd" clip-rule="evenodd" d="M18 16.6C20.5405 16.6 22.6 14.5405 22.6 12C22.6 9.45949 20.5405 7.4 18 7.4C15.4595 7.4 13.4 9.45949 13.4 12C13.4 14.5405 15.4595 16.6 18 16.6ZM18 18C21.3137 18 24 15.3137 24 12C24 8.68629 21.3137 6 18 6C14.6863 6 12 8.68629 12 12C12 15.3137 14.6863 18 18 18Z" fill="white"/>
<path fill-rule="evenodd" clip-rule="evenodd" d="M18 22.7C13.7768 22.7 10.0119 24.555 7.53201 27.4549L6.46802 26.5451C9.20972 23.339 13.3612 21.3 18 21.3C22.6389 21.3 26.7903 23.339 29.532 26.5451L28.468 27.4549C25.9881 24.555 22.2232 22.7 18 22.7Z" fill="white"/>
</svg>
